<?xml version="1.0" standalone="no"?>
<!DOCTYPE svg PUBLIC "-//W3C//DTD SVG 20010904//EN"
 "http://www.w3.org/TR/2001/REC-SVG-20010904/DTD/svg10.dtd">
<svg version="1.0" xmlns="http://www.w3.org/2000/svg"
 width="481.000000pt" height="481.000000pt" viewBox="0 0 481.000000 481.000000"
 preserveAspectRatio="xMidYMid meet">
<metadata>
Created by potrace 1.16, written by Peter Selinger 2001-2019
</metadata>
<g transform="translate(0.000000,481.000000) scale(0.100000,-0.100000)"
fill="#000000" stroke="none">
<path d="M2340 4311 c-8 -5 -27 -14 -42 -21 -15 -7 -40 -31 -55 -53 -24 -35
-28 -50 -28 -112 0 -62 3 -76 27 -107 74 -97 215 -102 298 -12 69 75 68 175
-3 247 -23 23 -52 48 -64 55 -25 13 -110 15 -133 3z m115 -136 c33 -32 32 -70
-1 -92 -57 -37 -134 -10 -134 48 0 64 87 93 135 44z"/>
<path d="M1522 4087 c-23 -23 -42 -46 -42 -50 0 -4 20 -28 45 -53 l44 -47 45
48 44 49 -41 48 c-23 26 -44 48 -47 48 -3 0 -25 -19 -48 -43z"/>
<path d="M3172 4086 c-23 -24 -42 -48 -42 -53 0 -10 79 -93 89 -93 4 0 20 18
37 40 16 22 32 40 37 40 19 0 3 36 -34 71 -22 21 -42 39 -43 39 -1 0 -21 -20
-44 -44z"/>
<path d="M1867 4102 c-21 -23 -22 -51 -1 -80 21 -31 119 -32 152 -2 27 25 28
61 4 83 -27 25 -133 23 -155 -1z"/>
<path d="M2777 4102 c-24 -26 -21 -68 5 -86 26 -19 96 -21 133 -4 33 15 42 51
21 83 -15 22 -23 25 -80 25 -48 0 -67 -4 -79 -18z"/>
<path d="M921 3839 c-53 -11 -73 -58 -41 -99 35 -46 130 -19 130 37 0 46 -39
73 -89 62z"/>
<path d="M1380 3840 c-82 -10 -120 -20 -120 -31 0 -5 -7 -9 -15 -9 -21 0 -95
-78 -125 -131 -24 -43 -24 -50 -28 -306 l-4 -261 -31 -5 c-84 -13 -146 -37
-254 -98 -85 -48 -148 -102 -206 -178 -23 -31 -45 -58 -48 -61 -14 -11 -77
-139 -97 -195 -61 -178 -52 -380 25 -553 8 -19 13 -35 11 -36 -1 -1 -41 -24
-87 -51 -59 -36 -106 -74 -162 -134 -184 -198 -247 -440 -181 -693 40 -151
180 -321 327 -394 151 -75 -31 -69 2020 -69 1912 0 1907 0 1949 37 6 4 16 8
24 8 7 0 33 13 57 30 24 16 47 30 51 30 18 0 164 162 197 218 63 107 81 179
81 322 1 142 -10 194 -67 305 -69 136 -186 247 -330 315 -40 19 -47 26 -47 51
0 57 -48 217 -83 279 -11 19 -26 46 -33 59 -29 54 -91 129 -146 176 -32 28
-65 56 -73 62 -19 17 -171 93 -186 93 -7 0 -27 5 -45 12 -32 11 -33 14 -39 84
-4 39 -5 136 -2 215 3 79 2 268 -2 419 -7 265 -8 277 -32 320 -32 59 -96 122
-155 151 l-49 24 -1015 1 c-558 1 -1044 -2 -1080 -6z m2106 -145 c31 -20 58
-47 74 -75 l25 -45 0 -1311 0 -1311 -29 -37 c-58 -76 -52 -76 -579 -76 l-467
0 20 37 c51 95 -4 201 -110 211 -65 6 -105 -11 -141 -61 -40 -56 -38 -127 6
-170 15 -16 -16 -17 -452 -16 -333 0 -477 4 -498 12 -46 18 -71 39 -93 77 -20
34 -20 55 -24 1340 l-3 1305 22 42 c28 51 76 89 129 102 23 5 454 9 1055 8
l1016 -2 49 -30z m-2396 -1738 c0 -1100 -1 -1083 55 -1165 l25 -37 -257 -3
c-142 -1 -281 2 -311 8 -136 25 -287 133 -362 259 -58 97 -74 158 -74 276 -1
173 55 297 192 432 79 77 152 124 250 161 96 36 236 36 340 -1 62 -21 74 -23
79 -11 10 27 -5 98 -24 111 -53 40 -219 63 -317 44 -70 -13 -73 -10 -107 89
-27 82 -37 244 -19 332 26 133 121 287 234 379 82 68 211 130 284 138 9 1 12
-208 12 -1012z m2696 533 c61 -26 157 -96 211 -152 174 -182 237 -441 160
-652 l-26 -69 27 -33 c38 -48 65 -45 97 10 14 24 34 76 43 115 9 39 20 71 23
71 4 0 35 -19 69 -41 81 -54 183 -175 211 -248 114 -303 -38 -612 -357 -721
-51 -18 -85 -20 -336 -20 l-279 0 22 31 c12 17 30 58 40 91 18 56 19 107 19
849 0 674 2 789 14 789 8 0 36 -9 62 -20z"/>
<path d="M1422 3523 c-12 -2 -30 -16 -39 -29 -15 -23 -16 -119 -10 -1167 l7
-1141 22 -23 21 -23 972 0 c969 0 972 0 999 21 l26 20 0 1153 0 1153 -21 19
c-20 18 -52 19 -988 20 -531 1 -976 -1 -989 -3z m1888 -1193 l0 -1080 -915 0
-915 0 0 1080 0 1080 915 0 915 0 0 -1080z"/>
<path d="M1692 3288 c-7 -7 -12 -24 -12 -38 0 -46 13 -50 180 -50 167 0 180 4
180 50 0 46 -13 50 -180 50 -108 0 -160 -4 -168 -12z"/>
<path d="M2232 3288 c-19 -19 -15 -66 7 -78 11 -5 84 -10 165 -10 118 0 147 3
160 16 19 18 20 38 6 65 -10 18 -23 19 -168 19 -110 0 -162 -4 -170 -12z"/>
<path d="M2772 3288 c-7 -7 -12 -24 -12 -38 0 -46 13 -50 176 -50 125 0 155 3
168 16 19 18 20 38 6 65 -10 18 -23 19 -168 19 -110 0 -162 -4 -170 -12z"/>
<path d="M1692 3128 c-7 -7 -12 -24 -12 -38 0 -46 13 -50 180 -50 167 0 180 4
180 50 0 46 -13 50 -180 50 -108 0 -160 -4 -168 -12z"/>
<path d="M2232 3128 c-7 -7 -12 -24 -12 -38 0 -47 13 -50 182 -50 149 0 158 1
168 21 9 16 9 28 0 50 l-12 29 -157 0 c-109 0 -161 -4 -169 -12z"/>
<path d="M2772 3128 c-7 -7 -12 -24 -12 -38 0 -47 13 -50 182 -50 l158 0 11
27 c7 20 7 34 -2 50 -12 22 -16 23 -169 23 -108 0 -160 -4 -168 -12z"/>
<path d="M1696 2964 c-19 -18 -21 -55 -4 -72 8 -8 61 -12 174 -12 138 0 163 2
168 16 12 31 6 63 -13 74 -11 5 -84 10 -165 10 -118 0 -147 -3 -160 -16z"/>
<path d="M2236 2964 c-20 -19 -21 -58 -2 -73 9 -8 64 -11 172 -9 l159 3 9 27
c8 22 6 32 -9 48 -17 18 -30 20 -166 20 -121 0 -150 -3 -163 -16z"/>
<path d="M2772 2968 c-7 -7 -12 -27 -12 -45 0 -43 8 -44 195 -41 l150 3 9 27
c8 22 6 32 -9 48 -17 18 -30 20 -170 20 -104 0 -155 -4 -163 -12z"/>
<path d="M1692 2798 c-15 -15 -16 -50 0 -66 8 -8 62 -12 175 -12 l163 0 6 27
c14 53 2 58 -172 61 -116 2 -163 -1 -172 -10z"/>
<path d="M2232 2798 c-7 -7 -12 -21 -12 -33 0 -41 16 -45 182 -45 157 0 159 0
169 24 8 17 8 29 0 45 -11 20 -19 21 -169 21 -110 0 -162 -4 -170 -12z"/>
<path d="M2773 2803 c-14 -5 -17 -41 -7 -67 5 -14 30 -16 170 -16 163 0 165 0
175 24 8 17 8 29 0 45 -11 20 -18 21 -169 20 -86 0 -163 -3 -169 -6z"/>
<path d="M1703 2645 c-26 -18 -30 -57 -9 -74 21 -18 326 -17 337 1 11 17 11
49 -1 68 -14 23 -296 27 -327 5z"/>
<path d="M2236 2641 c-10 -11 -16 -31 -14 -48 l3 -28 165 -3 c146 -2 166 -1
177 15 18 24 16 40 -7 63 -18 18 -33 20 -163 20 -129 0 -146 -2 -161 -19z"/>
<path d="M2782 2644 c-22 -15 -28 -48 -13 -72 6 -10 47 -14 166 -15 144 -1
158 0 171 18 19 26 18 41 -6 65 -18 18 -33 20 -158 20 -108 0 -142 -3 -160
-16z"/>
<path d="M1692 2478 c-19 -19 -15 -66 7 -78 28 -15 314 -13 329 2 15 15 15 61
0 76 -8 8 -60 12 -168 12 -108 0 -160 -4 -168 -12z"/>
<path d="M2232 2478 c-19 -19 -15 -66 7 -78 11 -5 84 -10 165 -10 118 0 147 3
160 16 19 18 20 38 6 65 -10 18 -23 19 -168 19 -110 0 -162 -4 -170 -12z"/>
<path d="M2773 2483 c-16 -6 -17 -65 -1 -81 8 -8 60 -12 170 -12 l158 0 12 25
c8 19 8 31 0 50 l-12 25 -157 -1 c-87 0 -164 -3 -170 -6z"/>
<path d="M1698 2319 c-21 -12 -24 -59 -6 -77 8 -8 60 -12 168 -12 108 0 160 4
168 12 19 19 15 66 -7 78 -25 13 -300 13 -323 -1z"/>
<path d="M2232 2318 c-16 -16 -15 -63 2 -77 9 -8 64 -11 172 -9 l159 3 9 27
c8 22 6 32 -9 48 -17 18 -30 20 -170 20 -104 0 -155 -4 -163 -12z"/>
<path d="M2772 2318 c-7 -7 -12 -24 -12 -38 0 -47 13 -50 182 -50 l158 0 12
25 c8 19 8 31 0 50 l-12 25 -158 0 c-110 0 -162 -4 -170 -12z"/>
<path d="M1698 2160 c-21 -13 -24 -60 -6 -78 8 -8 60 -12 168 -12 163 0 180 4
180 45 -1 47 -10 50 -172 53 -95 1 -160 -2 -170 -8z"/>
<path d="M2238 2159 c-22 -12 -24 -62 -4 -78 9 -8 64 -11 172 -9 l159 3 10 29
c8 24 6 31 -14 47 -20 17 -40 19 -165 19 -77 0 -149 -5 -158 -11z"/>
<path d="M2778 2159 c-21 -12 -24 -59 -6 -77 8 -8 60 -12 170 -12 l158 0 10
26 c11 29 0 58 -26 68 -26 10 -288 6 -306 -5z"/>
<path d="M1710 2003 c-35 -14 -42 -76 -11 -93 11 -5 84 -10 165 -10 156 0 176
6 176 54 0 48 -25 56 -176 55 -76 0 -146 -3 -154 -6z"/>
<path d="M2810 2000 c-43 -5 -45 -7 -48 -40 -5 -54 11 -60 175 -60 130 0 145
2 163 20 27 27 25 56 -4 75 -20 13 -47 16 -133 13 -59 -2 -128 -5 -153 -8z"/>
<path d="M2226 1984 c-11 -28 -6 -57 12 -70 12 -10 58 -13 164 -14 147 0 148
0 164 25 14 21 15 31 6 50 l-12 25 -164 0 c-140 0 -165 -2 -170 -16z"/>
<path d="M1692 1828 c-19 -19 -15 -66 7 -78 11 -5 84 -10 165 -10 156 0 176 6
176 54 0 42 -15 46 -180 46 -108 0 -160 -4 -168 -12z"/>
<path d="M2232 1828 c-19 -19 -15 -66 7 -78 11 -5 84 -10 165 -10 145 0 146 0
162 25 14 21 15 31 6 50 l-12 25 -158 0 c-110 0 -162 -4 -170 -12z"/>
<path d="M2766 1824 c-10 -25 -7 -59 6 -72 8 -8 59 -12 164 -12 125 0 155 3
168 16 19 18 20 38 6 65 -10 18 -23 19 -174 19 -140 0 -165 -2 -170 -16z"/>
<path d="M1692 1668 c-7 -7 -12 -24 -12 -38 0 -46 13 -50 180 -50 167 0 180 4
180 50 0 46 -13 50 -180 50 -108 0 -160 -4 -168 -12z"/>
<path d="M2232 1668 c-16 -16 -15 -63 2 -77 9 -8 64 -11 171 -9 136 3 159 5
169 20 7 11 7 26 0 45 l-9 28 -160 3 c-117 2 -164 -1 -173 -10z"/>
<path d="M2772 1668 c-16 -16 -15 -63 2 -77 9 -8 64 -11 171 -9 136 3 159 5
169 20 7 11 7 26 0 45 l-9 28 -160 3 c-117 2 -164 -1 -173 -10z"/>
<path d="M1702 1504 c-24 -17 -30 -62 -10 -82 8 -8 60 -12 168 -12 168 0 180
3 180 51 0 53 -17 59 -173 59 -113 0 -147 -3 -165 -16z"/>
<path d="M2240 1506 c-23 -10 -28 -64 -8 -84 13 -13 304 -17 325 -4 6 4 14 19
18 34 5 20 1 32 -15 48 -21 21 -29 22 -161 19 -76 -2 -147 -8 -159 -13z"/>
<path d="M2783 1510 c-18 -7 -23 -17 -23 -43 0 -54 9 -57 175 -57 134 0 154 2
168 18 21 23 21 41 1 70 -14 21 -21 22 -157 21 -78 0 -152 -4 -164 -9z"/>
<path d="M572 3527 c-32 -12 -76 -53 -99 -95 -17 -29 -16 -136 1 -170 17 -33
71 -82 90 -82 8 0 18 -4 21 -10 9 -15 101 -12 139 4 39 16 94 70 107 104 13
35 11 108 -5 146 -39 93 -152 139 -254 103z m132 -118 c22 -17 26 -28 26 -70
l0 -50 -77 3 -78 3 -3 42 c-6 79 71 120 132 72z"/>
<path d="M4073 3527 c-73 -27 -113 -92 -113 -183 0 -83 32 -129 122 -173 67
-34 195 11 238 82 23 38 28 144 8 179 -23 39 -61 78 -91 93 -35 18 -118 18
-164 2z m133 -122 c20 -20 25 -33 22 -68 l-3 -42 -77 -3 -78 -3 0 46 c0 85 80
126 136 70z"/>
<path d="M3840 3070 c-39 -44 -70 -86 -68 -93 2 -8 36 -45 77 -82 l73 -67 45
44 c79 76 113 111 113 117 0 3 -32 37 -70 75 -39 38 -70 73 -70 78 0 25 -36
-1 -100 -72z"/>
<path d="M266 3078 c-13 -18 -16 -53 -16 -178 0 -85 4 -162 9 -169 6 -9 25
-15 46 -15 21 0 40 6 46 15 5 7 9 48 9 89 0 41 3 111 6 156 6 76 5 82 -17 102
-29 28 -64 28 -83 0z"/>
<path d="M4460 3080 c-18 -18 -20 -33 -20 -178 0 -174 3 -182 58 -182 59 0 62
11 62 189 0 154 -1 160 -22 175 -30 21 -54 20 -78 -4z"/>
<path d="M4129 2689 c-18 -19 -39 -45 -47 -58 -15 -22 -15 -25 11 -45 15 -12
27 -25 27 -30 0 -11 27 -36 39 -36 6 0 18 12 28 28 10 15 26 33 35 40 27 20
21 42 -22 91 l-40 43 -31 -33z"/>
<path d="M102 2577 c-28 -29 -28 -57 -1 -91 23 -29 71 -35 102 -12 24 18 23
87 -1 109 -27 24 -74 21 -100 -6z"/>
<path d="M4579 2568 l-23 -31 20 -36 c16 -30 25 -36 54 -38 50 -4 75 18 75 67
0 47 -24 69 -72 70 -24 0 -37 -7 -54 -32z"/>
<path d="M97 2281 c-42 -43 -77 -81 -77 -85 0 -12 149 -156 162 -156 14 0 158
146 158 160 0 11 -147 160 -158 160 -4 0 -43 -35 -85 -79z"/>
<path d="M4513 2282 c-40 -42 -73 -80 -73 -84 0 -11 145 -158 156 -158 10 0
124 106 153 143 12 15 5 26 -65 97 -42 44 -82 80 -88 79 -6 0 -44 -35 -83 -77z"/>
</g>
</svg>
